<?xml version="1.0" standalone="no"?>
<!DOCTYPE svg PUBLIC "-//W3C//DTD SVG 20010904//EN"
 "http://www.w3.org/TR/2001/REC-SVG-20010904/DTD/svg10.dtd">
<svg version="1.0" xmlns="http://www.w3.org/2000/svg"
 width="512.000000pt" height="512.000000pt" viewBox="0 0 512.000000 512.000000"
 preserveAspectRatio="xMidYMid meet">
<metadata>
Created by potrace 1.14, written by Peter Selinger 2001-2017
</metadata>
<g transform="translate(0.000000,512.000000) scale(0.100000,-0.100000)"
fill="#000000" stroke="none">
<path d="M0 2560 l0 -2560 1244 0 1243 0 35 45 c50 64 119 137 124 132 9 -9
-17 -60 -53 -105 -20 -26 -41 -53 -46 -59 -8 -10 251 -13 1282 -13 l1291 0 0
2560 0 2560 -2560 0 -2560 0 0 -2560z m2552 1696 c37 -13 77 -21 91 -19 17 3
34 -5 62 -31 21 -20 39 -36 41 -36 10 0 182 -106 197 -122 10 -10 25 -18 33
-18 8 0 31 -12 50 -26 19 -15 34 -23 34 -20 0 4 9 2 20 -4 11 -6 20 -17 20
-25 0 -8 5 -15 11 -15 6 0 8 9 4 20 -8 27 19 27 42 0 12 -14 19 -16 24 -8 4 6
6 -4 5 -23 -1 -19 6 -50 16 -69 10 -19 18 -41 18 -49 0 -8 6 -22 14 -30 13
-14 46 -148 46 -184 0 -8 -8 -25 -18 -37 -18 -22 -21 -22 -70 -9 -48 12 -70
29 -38 29 12 0 12 5 3 30 -6 17 -17 30 -24 30 -6 0 -19 10 -27 22 -9 12 -16
19 -16 14 0 -5 -7 -2 -17 5 -10 9 -18 10 -20 4 -2 -6 -22 -9 -44 -7 -29 3 -40
1 -35 -7 4 -6 3 -11 -3 -11 -5 0 -13 5 -16 11 -8 12 -88 3 -119 -14 -12 -6
-25 -10 -29 -9 -5 1 -17 -8 -28 -22 -12 -15 -26 -22 -38 -19 -22 6 -51 -30
-45 -55 7 -30 -11 -43 -65 -46 -41 -2 -60 3 -87 21 -19 13 -34 26 -34 29 0 3
4 3 9 0 5 -3 11 1 15 9 3 8 12 15 20 15 14 0 31 29 21 38 -2 3 -11 -1 -20 -8
-12 -10 -15 -10 -15 0 0 10 -3 10 -15 0 -13 -11 -14 -10 -9 5 5 13 3 16 -7 13
-8 -3 -26 3 -41 13 -19 14 -27 16 -31 7 -3 -9 -9 -7 -20 7 -11 15 -28 20 -71
21 -31 1 -56 -2 -56 -7 0 -5 -10 -14 -22 -19 -13 -5 -17 -9 -8 -9 28 -2 -95
-53 -150 -62 -30 -5 -64 -14 -76 -18 -27 -12 -83 14 -94 43 -9 25 -3 120 10
160 6 16 10 39 10 51 0 35 60 212 84 248 12 17 31 33 41 35 11 2 56 42 101 88
62 64 87 84 107 84 15 0 27 4 27 8 0 16 165 1 232 -22z m-693 -653 c10 -17 10
-17 11 0 0 16 6 14 37 -12 21 -17 44 -31 51 -31 9 0 12 -6 8 -15 -4 -11 5 -22
29 -36 37 -22 40 -28 50 -104 9 -68 38 -130 70 -151 39 -25 136 -44 232 -44
45 0 83 -3 86 -7 2 -5 2 -2 1 5 -2 6 5 12 14 12 26 0 70 49 97 107 35 76 74
133 91 133 9 0 33 -37 62 -99 27 -54 62 -115 80 -135 18 -20 32 -43 32 -50 0
-17 29 -42 58 -51 21 -6 23 -4 18 13 -13 40 2 52 64 52 78 0 160 16 190 38 34
24 77 111 85 172 5 33 14 56 28 68 28 23 58 78 51 95 -8 22 69 21 88 0 24 -27
31 -145 13 -218 l-14 -60 5 60 c7 81 7 84 6 133 -2 49 -23 65 -50 38 -14 -14
-15 -18 -3 -25 8 -5 10 -14 6 -21 -5 -9 -4 -11 3 -6 13 8 13 3 16 -119 1 -38
4 -81 7 -95 4 -14 4 -19 2 -11 -3 8 -12 2 -24 -18 -25 -41 -24 -63 1 -32 23
27 25 23 9 -13 -7 -14 -16 -23 -22 -19 -6 3 -7 2 -4 -4 4 -6 -1 -28 -9 -51
-16 -40 -46 -62 -85 -62 -11 0 -21 -6 -24 -12 -2 -7 -15 -56 -29 -108 -28
-102 -118 -295 -131 -282 -5 4 -4 -2 0 -13 5 -11 29 -78 54 -150 64 -188 63
-236 -13 -495 -32 -107 -68 -219 -81 -250 -17 -39 -20 -57 -12 -62 8 -5 1 -40
-26 -120 -20 -62 -49 -169 -63 -238 -41 -201 -86 -394 -94 -410 -8 -13 -9 -13
-14 0 -3 8 -6 25 -8 38 -2 18 -26 -6 -119 -125 -63 -82 -157 -203 -208 -271
-50 -67 -96 -122 -101 -122 -29 0 4 58 127 221 75 100 170 222 211 271 l74 89
-7 85 c-12 151 -8 150 -105 32 -108 -132 -296 -390 -321 -442 -12 -25 -19 -63
-20 -100 -1 -83 -13 -163 -21 -150 -4 6 -25 85 -47 175 -22 90 -58 241 -81
334 -89 365 -124 526 -176 815 -8 47 -17 95 -20 108 -5 25 11 30 20 6 4 -9 9
-14 12 -11 3 3 -4 24 -16 48 -31 60 -80 260 -80 326 0 30 7 86 16 125 9 38 17
75 18 82 2 6 7 22 13 36 69 162 73 175 73 229 0 38 -11 86 -34 151 -18 52 -39
122 -45 155 -18 90 -17 88 -44 70 -43 -28 -79 -5 -129 83 -59 101 -68 130 -74
237 -6 99 8 160 48 202 26 28 73 30 87 6z m421 -3 c0 -5 -9 -10 -21 -10 -11 0
-17 5 -14 10 3 6 13 10 21 10 8 0 14 -4 14 -10z m830 -26 c0 -2 -7 -4 -15 -4
-8 0 -15 4 -15 10 0 5 7 7 15 4 8 -4 15 -8 15 -10z m-946 -25 c-3 -6 -22 -17
-40 -25 -19 -8 -34 -18 -34 -22 1 -11 42 -38 80 -51 31 -10 36 -9 58 14 23 25
23 27 6 39 -9 7 -14 18 -10 24 11 18 34 14 40 -6 4 -11 18 -25 31 -32 14 -7
23 -15 21 -18 -3 -2 3 -13 13 -24 15 -15 26 -18 55 -13 24 5 36 3 36 -4 0 -17
21 -13 36 7 13 16 13 16 14 0 0 -23 36 -24 48 -2 19 33 -2 61 -40 55 -15 -2
-8 17 8 23 33 13 80 -59 50 -76 -14 -8 -22 -29 -41 -112 -6 -27 -5 -28 11 -15
16 13 16 12 7 -6 -32 -59 -101 -80 -241 -73 -148 7 -183 34 -202 156 -13 77 1
127 43 152 35 22 62 26 51 9z m136 1 c0 -5 -4 -10 -10 -10 -5 0 -10 5 -10 10
0 6 5 10 10 10 6 0 10 -4 10 -10z m113 -26 c9 -4 17 -11 17 -16 0 -6 -6 -8
-13 -5 -7 3 -24 -1 -38 -9 -41 -23 -53 -17 -27 15 13 17 28 28 33 25 6 -2 18
-7 28 -10z m497 6 c0 -5 -4 -10 -10 -10 -5 0 -10 5 -10 10 0 6 5 10 10 10 6 0
10 -4 10 -10z m243 -11 c35 -16 52 -54 51 -110 -3 -89 -31 -147 -86 -175 -69
-36 -267 -24 -296 17 -7 11 -18 19 -24 19 -6 0 -5 -7 3 -17 7 -11 3 -9 -10 3
-17 16 -24 36 -28 74 -3 37 -2 50 6 46 6 -4 14 0 17 8 5 12 10 13 25 5 13 -7
25 -6 40 2 14 7 41 8 76 4 60 -7 136 2 128 16 -6 9 16 4 53 -14 18 -9 26 -7
42 10 23 26 23 83 0 83 -8 0 -21 9 -28 20 -14 23 -4 25 31 9z m-264 -25 c10
-24 10 -25 -11 -18 -30 9 -32 10 -25 29 9 22 22 18 36 -11z m128 9 c4 -12 -35
-38 -44 -30 -2 3 2 15 9 26 13 22 29 23 35 4z m-597 -31 c0 -11 -39 -12 -45
-1 -4 5 5 9 19 9 14 0 26 -4 26 -8z m560 -37 c0 -8 -8 -15 -19 -15 -10 0 -24
7 -31 15 -11 13 -8 15 19 15 21 0 31 -5 31 -15z m-230 -2834 c-14 -50 -337
-471 -361 -471 -26 0 8 62 86 155 22 28 79 100 125 160 71 93 148 185 156 185
2 0 -1 -13 -6 -29z"/>
<path d="M2136 3681 c-4 -5 0 -12 6 -14 10 -4 10 -6 1 -6 -7 -1 -17 -10 -23
-21 -9 -17 -8 -20 9 -20 11 0 27 7 35 15 13 13 13 20 3 35 -13 22 -23 25 -31
11z"/>
<path d="M1771 3563 c-31 -59 -38 -118 -27 -210 7 -52 18 -98 25 -105 11 -11
12 -10 6 1 -4 7 -9 51 -11 98 -2 70 1 96 21 151 13 36 22 69 19 74 -8 13 -23
9 -33 -9z"/>
<path d="M3325 3560 c4 -6 11 -8 16 -5 14 9 11 15 -7 15 -8 0 -12 -5 -9 -10z"/>
<path d="M1910 3516 c0 -14 5 -26 10 -26 6 0 10 9 10 19 0 11 -4 23 -10 26 -6
4 -10 -5 -10 -19z"/>
<path d="M1921 3423 c-1 -28 3 -54 8 -57 5 -3 6 16 4 42 -7 69 -11 74 -12 15z"/>
<path d="M1852 3389 c-44 -54 -52 -90 -28 -121 25 -33 43 -22 44 27 0 27 9 60
21 81 13 22 18 41 13 50 -6 11 -18 3 -50 -37z"/>
<path d="M3266 3378 c-4 -22 -1 -43 10 -64 16 -30 16 -32 -5 -61 -15 -20 -21
-41 -19 -64 l3 -34 17 35 c10 19 18 31 18 27 0 -4 9 -3 19 3 12 6 22 26 26 50
5 32 3 45 -14 66 -12 15 -21 32 -21 39 0 7 -6 18 -14 24 -11 9 -15 5 -20 -21z"/>
<path d="M1867 3244 c-11 -11 3 -24 25 -24 17 0 18 2 8 15 -13 16 -23 19 -33
9z"/>
<path d="M2513 3145 l-38 -35 55 6 c64 8 79 17 64 42 -18 28 -41 25 -81 -13z"/>
<path d="M2662 3155 c-37 -27 -34 -30 43 -51 66 -17 75 -17 75 -4 0 11 -68 80
-78 79 -4 0 -22 -11 -40 -24z"/>
<path d="M2858 2941 c-16 -23 -17 -23 -88 -10 -61 11 -73 10 -80 -2 -8 -11
-43 -14 -179 -14 -128 -1 -173 -4 -185 -14 -12 -10 -14 -17 -6 -25 7 -7 14 -6
21 1 9 9 21 7 50 -10 21 -12 41 -18 46 -14 4 5 1 12 -6 16 -26 17 7 19 134 11
72 -5 143 -9 158 -10 24 0 26 -2 17 -20 -6 -12 -16 -17 -27 -13 -11 4 -14 2
-11 -8 6 -17 75 -14 123 7 35 14 45 11 45 -18 0 -23 11 -23 38 0 19 17 20 23
10 58 -6 21 -11 42 -10 47 1 4 -4 7 -12 7 -8 0 -16 8 -18 18 -3 15 -6 14 -20
-7z"/>
<path d="M2953 2685 c-13 -13 -23 -27 -23 -30 0 -10 -54 -54 -67 -55 -7 0 -17
-8 -22 -17 -6 -10 -11 -14 -11 -10 0 7 -11 0 -45 -31 -8 -7 -19 -11 -23 -8 -5
3 -19 -4 -31 -15 -12 -11 -26 -17 -32 -14 -6 4 -16 1 -22 -7 -19 -23 -95 -42
-113 -27 -11 9 -14 8 -14 -5 0 -9 -4 -16 -10 -16 -5 0 -10 5 -10 11 0 6 -7 8
-16 5 -9 -4 -23 -1 -30 5 -7 6 -17 8 -22 6 -4 -3 -14 -2 -22 3 -9 5 -19 5 -27
-1 -8 -7 -18 -7 -32 1 -25 13 -28 -2 -5 -24 8 -9 12 -16 8 -16 -3 0 -2 -6 4
-12 6 -7 10 -17 9 -23 0 -5 13 -17 29 -25 16 -8 31 -18 32 -22 2 -5 11 -8 20
-8 32 -1 175 -47 165 -53 -6 -4 -13 -21 -17 -38 -3 -18 -9 -29 -12 -26 -4 3
-12 1 -19 -6 -7 -7 -27 -23 -44 -37 -38 -30 -39 -40 -5 -40 14 0 23 -4 19 -10
-14 -22 -56 -8 -107 36 -29 25 -73 60 -98 77 -33 23 -22 10 39 -49 127 -120
160 -140 186 -115 6 5 28 19 49 31 97 54 227 191 346 366 85 125 97 151 45
104 -40 -37 -40 -34 11 44 15 23 16 30 5 34 -7 2 -21 13 -29 23 -21 24 -32 23
-59 -6z m42 -15 c3 -5 1 -10 -4 -10 -6 0 -11 5 -11 10 0 6 2 10 4 10 3 0 8 -4
11 -10z"/>
<path d="M2870 2630 c0 -5 5 -10 10 -10 6 0 10 5 10 10 0 6 -4 10 -10 10 -5 0
-10 -4 -10 -10z"/>
<path d="M2161 2387 c29 -24 119 -86 119 -83 0 7 -107 86 -116 86 -4 0 -5 -2
-3 -3z"/>
<path d="M2668 2006 c51 -53 62 -70 62 -98 l0 -33 -24 40 c-35 58 -123 130
-169 139 -31 6 -46 2 -81 -18 -75 -44 -75 -49 -4 -97 102 -69 159 -121 188
-173 26 -45 28 -46 35 -25 15 55 39 100 51 95 7 -3 29 -8 48 -12 20 -3 39 -10
42 -15 8 -14 34 -10 40 6 9 23 -105 168 -175 221 -72 56 -79 39 -13 -30z"/>
<path d="M2332 1908 c-44 -64 -72 -124 -72 -153 0 -23 3 -25 45 -25 26 0 59 7
75 15 28 15 29 14 59 -27 19 -26 29 -49 25 -58 -4 -8 -10 -35 -14 -60 -5 -25
-17 -80 -28 -124 -25 -94 -16 -89 31 20 30 72 62 125 111 188 9 11 22 16 31
12 14 -5 6 -20 -40 -86 -31 -43 -81 -132 -111 -197 -54 -114 -56 -122 -63
-225 -3 -60 -5 -108 -5 -108 1 0 32 48 70 107 37 58 105 152 152 207 123 149
120 138 75 248 -44 108 -81 150 -216 246 -48 34 -89 62 -92 62 -2 0 -17 -19
-33 -42z"/>
<path d="M2710 1482 c0 -4 -43 -61 -95 -127 -53 -66 -129 -173 -170 -239 l-75
-118 1 -112 0 -111 19 25 c11 14 66 88 123 165 57 77 136 177 175 222 60 69
72 89 72 118 0 47 -31 185 -42 185 -4 0 -8 -3 -8 -8z"/>
<path d="M2780 3319 c0 -5 5 -7 10 -4 6 3 10 8 10 11 0 2 -4 4 -10 4 -5 0 -10
-5 -10 -11z"/>
</g>
</svg>
