<svg xmlns="http://www.w3.org/2000/svg" width="50" height="50" viewBox="0 0 50 50">
  <g id="Group_36" data-name="Group 36" transform="translate(-795.401 -1191.151)">
    <g id="Group_33" data-name="Group 33" transform="translate(617.863 747.629)">
      <rect id="Rectangle_10" data-name="Rectangle 10" width="50" height="50" rx="25" transform="translate(177.538 443.522)" fill="none"/>
      <g id="Group_32" data-name="Group 32">
        <path id="Path_21" data-name="Path 21" d="M207.82,464.786a1.258,1.258,0,0,1,1.257,1.256v4.692a1.257,1.257,0,1,1-2.513,0v-4.692A1.258,1.258,0,0,1,207.82,464.786Z" fill="#333"/>
        <path id="Path_22" data-name="Path 22" d="M204.773,464.073a1.258,1.258,0,0,1,1.256,1.256v5.644a1.257,1.257,0,0,1-2.513,0v-1.209a2.029,2.029,0,0,0,0-3.724v-.71A1.259,1.259,0,0,1,204.773,464.073Z" fill="#333"/>
        <path id="Path_23" data-name="Path 23" d="M202.981,471.126a1.255,1.255,0,0,1-.238.729,7.821,7.821,0,0,0-1.57-1.918H202.7c.1,0,.186-.018.278-.027v1.216Z" fill="#333"/>
        <path id="Path_24" data-name="Path 24" d="M200.468,465.2a1.257,1.257,0,0,1,2.513,0c0,.011.01.017.011.025,0,.033-.011.067-.011.1v.565a1.94,1.94,0,0,0-.278-.027h-2.235Z" fill="#333"/>
        <path id="Path_25" data-name="Path 25" d="M197.422,465.443a1.256,1.256,0,1,1,2.512,0v.424h-2.512Z" fill="#333"/>
        <rect id="Rectangle_11" data-name="Rectangle 11" width="9.651" height="5.249" transform="translate(197.713 478.107)" fill="#333"/>
        <path id="Path_26" data-name="Path 26" d="M206.951,477.572h-8.659l-2.508-4.009a3.929,3.929,0,0,1-.6-2.076v-3.525a1.562,1.562,0,0,1,1.562-1.56H202.7a1.5,1.5,0,1,1,0,2.995h-2.3a.268.268,0,0,0-.154.487,7.266,7.266,0,0,1,2.716,3.724.268.268,0,0,0,.51-.162,7.916,7.916,0,0,0-.452-1.1,1.735,1.735,0,0,0,.27-.368,1.783,1.783,0,0,0,3.074-.206,1.78,1.78,0,0,0,2.689.251,3.852,3.852,0,0,1-.3,1.345Z" fill="#333"/>
        <path id="Path_27" data-name="Path 27" d="M202,454.223v6.538a.535.535,0,1,0,1.071,0v-6.538a.535.535,0,1,0-1.071,0Z" fill="#333"/>
        <path id="Path_28" data-name="Path 28" d="M195.13,462.988a.535.535,0,0,0,.482-.768l-2.837-5.892a.536.536,0,0,0-.965.465l2.838,5.891A.534.534,0,0,0,195.13,462.988Z" fill="#333"/>
        <path id="Path_29" data-name="Path 29" d="M184.408,462.7a.535.535,0,0,0-.668.836l5.112,4.079a.531.531,0,0,0,.335.116.535.535,0,0,0,.335-.953Z" fill="#333"/>
        <path id="Path_30" data-name="Path 30" d="M221.421,462.78a.534.534,0,0,0-.752-.085l-5.112,4.078a.535.535,0,0,0,.335.953.538.538,0,0,0,.334-.116l5.113-4.079A.535.535,0,0,0,221.421,462.78Z" fill="#333"/>
        <path id="Path_31" data-name="Path 31" d="M213.018,456.078a.534.534,0,0,0-.714.25l-2.838,5.892a.536.536,0,0,0,.965.465l2.837-5.891A.536.536,0,0,0,213.018,456.078Z" fill="#333"/>
      </g>
    </g>
  </g>
</svg>
