<svg xmlns="http://www.w3.org/2000/svg" width="50" height="50" viewBox="0 0 50 50">
  <g id="Group_35" data-name="Group 35" transform="translate(-739 -1191.151)">
    <rect id="Rectangle_8" data-name="Rectangle 8" width="50" height="50" rx="25" transform="translate(739 1191.151)" fill="#333"/>
    <g id="Group_31" data-name="Group 31" transform="translate(617.863 747.629)">
      <path id="Path_10" data-name="Path 10" d="M151.419,464.786a1.258,1.258,0,0,1,1.257,1.256v4.692a1.257,1.257,0,1,1-2.513,0v-4.692A1.258,1.258,0,0,1,151.419,464.786Z" fill="#fff"/>
      <path id="Path_11" data-name="Path 11" d="M148.371,464.073a1.257,1.257,0,0,1,1.256,1.256v5.644a1.256,1.256,0,0,1-2.512,0v-1.209a2.029,2.029,0,0,0,0-3.724v-.71A1.258,1.258,0,0,1,148.371,464.073Z" fill="#fff"/>
      <path id="Path_12" data-name="Path 12" d="M146.58,471.126a1.255,1.255,0,0,1-.238.729,7.843,7.843,0,0,0-1.57-1.918h1.53c.1,0,.187-.018.279-.027v1.216Z" fill="#fff"/>
      <path id="Path_13" data-name="Path 13" d="M144.066,465.2a1.257,1.257,0,0,1,2.514,0c0,.011.009.017.01.025,0,.033-.01.067-.01.1v.565a1.94,1.94,0,0,0-.279-.027h-2.235Z" fill="#fff"/>
      <path id="Path_14" data-name="Path 14" d="M141.021,465.443a1.256,1.256,0,1,1,2.512,0v.424h-2.512Z" fill="#fff"/>
      <rect id="Rectangle_9" data-name="Rectangle 9" width="9.651" height="5.249" transform="translate(141.312 478.107)" fill="#fff"/>
      <path id="Path_15" data-name="Path 15" d="M150.549,477.572H141.89l-2.508-4.009a3.937,3.937,0,0,1-.6-2.076v-3.525a1.561,1.561,0,0,1,1.561-1.56H146.3a1.5,1.5,0,1,1,0,2.995H144a.268.268,0,0,0-.154.487,7.277,7.277,0,0,1,2.716,3.724.267.267,0,0,0,.509-.162,7.8,7.8,0,0,0-.452-1.1,1.735,1.735,0,0,0,.27-.368,1.784,1.784,0,0,0,3.075-.206,1.78,1.78,0,0,0,2.689.251,3.875,3.875,0,0,1-.3,1.345Z" fill="#fff"/>
      <path id="Path_16" data-name="Path 16" d="M145.6,454.223v6.538a.535.535,0,1,0,1.071,0v-6.538a.535.535,0,1,0-1.071,0Z" fill="#fff"/>
      <path id="Path_17" data-name="Path 17" d="M138.729,462.988a.536.536,0,0,0,.482-.768l-2.838-5.892a.536.536,0,0,0-.965.465l2.838,5.891A.536.536,0,0,0,138.729,462.988Z" fill="#fff"/>
      <path id="Path_18" data-name="Path 18" d="M128.007,462.7a.535.535,0,0,0-.669.836l5.113,4.079a.529.529,0,0,0,.335.116.535.535,0,0,0,.335-.953Z" fill="#fff"/>
      <path id="Path_19" data-name="Path 19" d="M165.02,462.78a.536.536,0,0,0-.753-.085l-5.111,4.078a.535.535,0,0,0,.668.837l5.114-4.079A.536.536,0,0,0,165.02,462.78Z" fill="#fff"/>
      <path id="Path_20" data-name="Path 20" d="M156.617,456.078a.534.534,0,0,0-.714.25l-2.838,5.892a.536.536,0,0,0,.965.465l2.836-5.891A.535.535,0,0,0,156.617,456.078Z" fill="#fff"/>
    </g>
  </g>
</svg>
