<svg xmlns="http://www.w3.org/2000/svg" width="50" height="50" viewBox="0 0 50 50">
  <g id="Group_37" data-name="Group 37" transform="translate(-795.401 -1116)">
    <g id="Group_30" data-name="Group 30" transform="translate(617.863 747.629)">
      <rect id="Rectangle_7" data-name="Rectangle 7" width="50" height="50" rx="25" transform="translate(177.538 368.371)" fill="none"/>
      <g id="Group_29" data-name="Group 29">
        <g id="Group_20" data-name="Group 20">
          <g id="Group_19" data-name="Group 19">
            <circle id="Ellipse_2" data-name="Ellipse 2" cx="4.25" cy="4.25" r="4.25" transform="translate(198.288 376.371)" fill="#333"/>
          </g>
        </g>
        <g id="Group_22" data-name="Group 22">
          <g id="Group_21" data-name="Group 21">
            <path id="Path_6" data-name="Path 6" d="M210.8,407.3l-5.234,1.963,2.6.976A2.112,2.112,0,0,0,210.8,407.3Z" fill="#333"/>
          </g>
        </g>
        <g id="Group_24" data-name="Group 24">
          <g id="Group_23" data-name="Group 23">
            <path id="Path_7" data-name="Path 7" d="M192.659,399.881a2.125,2.125,0,1,0-1.492,3.98l2.293.86,6.053-2.27Z" fill="#333"/>
          </g>
        </g>
        <g id="Group_26" data-name="Group 26">
          <g id="Group_25" data-name="Group 25">
            <path id="Path_8" data-name="Path 8" d="M215.153,401.125a2.131,2.131,0,0,0-2.736-1.244l-17,6.375a2.125,2.125,0,1,0,1.492,3.98l17-6.375A2.126,2.126,0,0,0,215.153,401.125Z" fill="#333"/>
          </g>
        </g>
        <g id="Group_28" data-name="Group 28">
          <g id="Group_27" data-name="Group 27">
            <path id="Path_9" data-name="Path 9" d="M217.413,393.371h-5.061l-3.663-7.326a2.125,2.125,0,0,0-1.953-1.174h-8.4a2.125,2.125,0,0,0-1.952,1.174l-3.663,7.326h-5.062a2.125,2.125,0,0,0,0,4.25h6.375a2.125,2.125,0,0,0,1.9-1.175l2.349-4.7v7.974l4.25,1.594,4.25-1.594v-7.974l2.35,4.7a2.124,2.124,0,0,0,1.9,1.175h6.375a2.125,2.125,0,1,0,0-4.25Z" fill="#333"/>
          </g>
        </g>
      </g>
    </g>
  </g>
</svg>
