<svg xmlns="http://www.w3.org/2000/svg" width="50" height="50" viewBox="0 0 50 50">
  <g id="Group_34" data-name="Group 34" transform="translate(-739 -1116)">
    <g id="Group_18" data-name="Group 18" transform="translate(617.863 747.629)">
      <rect id="Rectangle_6" data-name="Rectangle 6" width="50" height="50" rx="25" transform="translate(121.137 368.371)" fill="#333"/>
      <g id="Group_17" data-name="Group 17">
        <g id="Group_8" data-name="Group 8">
          <g id="Group_7" data-name="Group 7">
            <circle id="Ellipse_1" data-name="Ellipse 1" cx="4.25" cy="4.25" r="4.25" transform="translate(141.887 376.371)" fill="#fff"/>
          </g>
        </g>
        <g id="Group_10" data-name="Group 10">
          <g id="Group_9" data-name="Group 9">
            <path id="Path_2" data-name="Path 2" d="M154.4,407.3l-5.234,1.963,2.6.976a2.125,2.125,0,0,0,2.736-1.244A2.1,2.1,0,0,0,154.4,407.3Z" fill="#fff"/>
          </g>
        </g>
        <g id="Group_12" data-name="Group 12">
          <g id="Group_11" data-name="Group 11">
            <path id="Path_3" data-name="Path 3" d="M136.258,399.881a2.125,2.125,0,1,0-1.492,3.98l2.293.86,6.052-2.27Z" fill="#fff"/>
          </g>
        </g>
        <g id="Group_14" data-name="Group 14">
          <g id="Group_13" data-name="Group 13">
            <path id="Path_4" data-name="Path 4" d="M158.752,401.125a2.131,2.131,0,0,0-2.736-1.244l-17,6.375a2.125,2.125,0,1,0,1.492,3.98l17-6.375A2.126,2.126,0,0,0,158.752,401.125Z" fill="#fff"/>
          </g>
        </g>
        <g id="Group_16" data-name="Group 16">
          <g id="Group_15" data-name="Group 15">
            <path id="Path_5" data-name="Path 5" d="M161.012,393.371h-5.061l-3.663-7.326a2.126,2.126,0,0,0-1.953-1.174h-8.4a2.127,2.127,0,0,0-1.953,1.174l-3.663,7.326h-5.061a2.125,2.125,0,0,0,0,4.25h6.375a2.126,2.126,0,0,0,1.9-1.175l2.349-4.7v7.974l4.25,1.594,4.25-1.594v-7.974l2.349,4.7a2.126,2.126,0,0,0,1.9,1.175h6.375a2.125,2.125,0,1,0,0-4.25Z" fill="#fff"/>
          </g>
        </g>
      </g>
    </g>
  </g>
</svg>
